<?xml version="1.0" standalone="no"?><!DOCTYPE svg PUBLIC "-//W3C//DTD SVG 1.1//EN" "http://www.w3.org/Graphics/SVG/1.1/DTD/svg11.dtd"><svg t="1536314424787" class="icon" style="" viewBox="0 0 1024 1024" version="1.1" xmlns="http://www.w3.org/2000/svg" p-id="1950" xmlns:xlink="http://www.w3.org/1999/xlink" width="200" height="200"><defs><style type="text/css"></style></defs><path d="M317.226667 522.666667a18.176 18.176 0 0 0-8.618667 5.76 17.792 17.792 0 0 0-2.986667 10.453333c0 6.4 1.621333 10.752 5.12 13.141333 3.285333 2.389333 8.277333 3.498667 15.018667 3.498667a33.706667 33.706667 0 0 0 21.717333-9.6v-28.16c-7.168 0.64-12.928 1.28-17.28 1.92-4.48 0.426667-8.832 1.450667-13.013333 2.986667z" fill="#1296db" p-id="1951"></path><path d="M512 0L0 512l512 512 512-512L512 0z m0 825.898667A314.026667 314.026667 0 0 1 198.101333 512 314.112 314.112 0 0 1 512 198.058667 314.026667 314.026667 0 0 1 825.898667 512 314.026667 314.026667 0 0 1 512 825.898667z" fill="#1296db" p-id="1952"></path><path d="M512 229.418667v0.085333c-155.904 0-282.453333 126.549333-282.453333 282.453333s126.549333 282.453333 282.453333 282.453334 282.453333-126.549333 282.453333-282.453334A282.666667 282.666667 0 0 0 512 229.376z m-122.112 351.829333h-42.453333v-14.336l-7.765334 6.570667a57.642667 57.642667 0 0 1-20.352 9.941333c-3.498667 0.853333-8.618667 1.493333-15.018666 1.493333a40.106667 40.106667 0 0 1-29.781334-12.16 41.472 41.472 0 0 1-11.818666-30.549333c0-10.154667 1.962667-18.218667 5.973333-24.490667 4.266667-6.4 10.24-11.52 17.28-14.848 8.746667-3.84 18.048-6.485333 27.562667-7.68 10.666667-1.408 22.016-2.56 34.261333-3.328v-0.725333c0-7.509333-2.816-12.672-8.362667-15.488-5.546667-2.986667-13.738667-4.352-24.746666-4.352-4.992 0-10.837333 0.853333-17.493334 2.688-6.741333 1.877333-13.141333 4.266667-19.541333 6.997333H273.92v-32.853333c4.138667-1.28 10.922667-2.645333 20.48-4.266667 9.258667-1.706667 18.688-2.56 28.288-2.56 23.466667 0 40.533333 3.925333 51.2 11.776 10.666667 7.808 16 19.712 16 35.712v92.501334z m137.386667-7.125333c-2.986667 1.194667-5.717333 2.389333-8.533334 3.669333-3.157333 1.28-6.4 2.474667-9.813333 3.413333a192.768 192.768 0 0 1-11.52 2.56 90.24 90.24 0 0 1-14.336 0.938667c-11.221333 0-21.589333-1.408-30.848-4.266667a65.365333 65.365333 0 0 1-24.32-13.098666 58.794667 58.794667 0 0 1-15.914667-22.186667 79.616 79.616 0 0 1-5.76-31.488c-0.341333-11.52 1.792-22.826667 6.229334-33.28 3.84-8.704 9.557333-16.384 16.725333-22.613333 7.04-5.717333 15.146667-9.941333 23.893333-12.373334 9.386667-2.816 19.072-4.096 28.8-4.096 15.786667 0 31.232 3.712 45.226667 10.88v36.437334h-5.418667a105.386667 105.386667 0 0 0-6.272-5.290667 54.826667 54.826667 0 0 0-8.021333-5.376 45.568 45.568 0 0 0-23.466667-5.973333c-10.837333 0-19.2 3.669333-25.173333 11.221333-5.888 7.552-8.96 17.664-8.96 30.464 0 13.653333 3.2 23.893333 9.6 30.506667a33.28 33.28 0 0 0 25.258667 10.026666c4.693333 0 9.472-0.554667 14.08-1.792a45.653333 45.653333 0 0 0 17.706666-9.6c2.048-1.706667 3.754667-3.498667 5.248-4.693333h5.546667v35.968z m184.874666 7.381333v-68.138667c0-6.698667 0-12.373333-0.298666-16.938666a33.450667 33.450667 0 0 0-2.218667-11.221334 11.264 11.264 0 0 0-5.546667-6.4 26.24 26.24 0 0 0-20.394666 0.085334c-3.669333 1.706667-7.168 3.712-10.410667 5.973333v96.554667h-42.368v-68.053334c0-6.656-0.128-12.202667-0.426667-16.896a37.376 37.376 0 0 0-2.133333-11.264 12.373333 12.373333 0 0 0-5.802667-6.4 22.613333 22.613333 0 0 0-10.666666-2.048 23.722667 23.722667 0 0 0-10.24 2.389334c-3.328 1.706667-6.485333 3.669333-9.728 5.802666v96.512h-42.453334V445.44h42.368v15.189333c6.144-5.333333 12.629333-9.941333 19.626667-13.781333 6.314667-3.413333 13.397333-5.12 20.650667-5.12a40.064 40.064 0 0 1 21.930666 5.973333c6.528 4.266667 11.52 10.410667 14.506667 17.664 8.106667-7.552 15.786667-13.397333 23.04-17.493333a44.117333 44.117333 0 0 1 38.869333-2.986667c4.906667 1.877333 9.386667 4.949333 12.8 8.96 3.84 4.522667 6.826667 9.813333 8.533334 15.530667 1.92 6.058667 2.816 13.994667 2.816 23.594667v88.576h-42.453334z" fill="#1296db" p-id="1953"></path></svg>