<?xml version="1.0" standalone="no"?><!DOCTYPE svg PUBLIC "-//W3C//DTD SVG 1.1//EN" "http://www.w3.org/Graphics/SVG/1.1/DTD/svg11.dtd"><svg t="1536314636223" class="icon" style="" viewBox="0 0 1024 1024" version="1.1" xmlns="http://www.w3.org/2000/svg" p-id="3007" xmlns:xlink="http://www.w3.org/1999/xlink" width="200" height="200"><defs><style type="text/css"></style></defs><path d="M236.307692 322.953846h555.323077V748.307692c0 47.261538-23.630769 70.892308-70.892307 70.892308h-35.446154v145.723077c0 31.507692-27.569231 55.138462-55.138462 55.138461-31.507692 0-59.076923-19.692308-63.015384-51.2v-149.661538h-106.338462v145.723077c0 27.569231-23.630769 51.2-51.2 55.138461-27.569231 3.938462-55.138462-11.815385-63.015385-39.384615 0-7.876923-3.938462-11.815385-3.938461-19.692308v-122.092307-19.692308h-39.384616c-39.384615 0-66.953846-27.569231-66.953846-66.953846V322.953846z m555.323077-39.384615H236.307692c3.938462-94.523077 59.076923-157.538462 141.784616-196.923077-11.815385-15.753846-19.692308-27.569231-27.569231-39.384616-3.938462-7.876923-11.815385-15.753846-15.753846-23.630769-3.938462-7.876923-11.815385-11.815385 0-19.692307s15.753846 3.938462 19.692307 7.876923c11.815385 15.753846 19.692308 31.507692 31.507693 47.261538 7.876923 15.753846 7.876923 15.753846 27.569231 11.815385 70.892308-19.692308 137.846154-19.692308 204.8 3.938461 3.938462 0 3.938462 0 7.876923 3.938462L669.538462 15.753846c0-3.938462 3.938462-3.938462 3.938461-7.876923 3.938462-3.938462 7.876923-7.876923 15.753846-3.938461 3.938462 3.938462 3.938462 7.876923 0 15.753846-11.815385 19.692308-23.630769 35.446154-35.446154 55.138461l-7.876923 11.815385c82.707692 39.384615 137.846154 102.4 145.723077 196.923077z m-129.969231-106.338462c0-15.753846-11.815385-31.507692-27.56923-31.507692-15.753846 0-31.507692 11.815385-31.507693 27.569231 0 15.753846 11.815385 27.569231 27.569231 31.507692 15.753846 0 31.507692-11.815385 31.507692-27.569231z m-240.246153-3.938461c0-15.753846-11.815385-27.569231-31.507693-27.569231-11.815385 0-27.569231 11.815385-27.56923 31.507692 0 15.753846 11.815385 27.569231 31.507692 27.569231 15.753846 0 27.569231-11.815385 27.569231-31.507692 0 3.938462 0 0 0 0zM949.169231 512v122.092308c0 35.446154-23.630769 63.015385-59.076923 63.015384s-59.076923-27.569231-59.076923-63.015384V382.030769c0-31.507692 23.630769-55.138462 51.2-59.076923 31.507692-3.938462 59.076923 15.753846 63.015384 47.261539v19.692307c3.938462 39.384615 3.938462 78.769231 3.938462 122.092308zM192.984615 512v129.969231c0 27.569231-19.692308 47.261538-43.323077 55.138461-23.630769 7.876923-51.2-3.938462-63.015384-27.56923-3.938462-7.876923-7.876923-19.692308-7.876923-31.507693V382.030769c0-31.507692 27.569231-59.076923 59.076923-59.076923S196.923077 346.584615 196.923077 382.030769c0 43.323077-3.938462 86.646154-3.938462 129.969231z" fill="#5DC546" p-id="3008"></path></svg>