<?xml version="1.0" standalone="no"?><!DOCTYPE svg PUBLIC "-//W3C//DTD SVG 1.1//EN" "http://www.w3.org/Graphics/SVG/1.1/DTD/svg11.dtd"><svg class="icon" width="200px" height="200.00px" viewBox="0 0 1024 1024" version="1.1" xmlns="http://www.w3.org/2000/svg"><path fill="#333333" d="M878.4 625.6c-19.2-19.2-17.6-35.2 6.4-49.6 12.8-6.4 25.6-14.4 38.4-19.2 51.2-20.8 73.6-57.6 67.2-112-3.2-32-20.8-52.8-48-67.2-19.2-11.2-40-22.4-62.4-27.2-46.4-9.6-65.6-38.4-75.2-83.2-11.2-52.8-28.8-102.4-52.8-150.4-19.2-41.6-46.4-76.8-96-86.4h-57.6c-60.8 22.4-121.6 22.4-182.4 0h-57.6c-44.8 9.6-70.4 40-89.6 78.4-27.2 52.8-44.8 108.8-59.2 166.4-9.6 40-30.4 64-70.4 73.6-48 12.8-89.6 33.6-107.2 86.4v48c9.6 48 49.6 64 86.4 81.6 48 24 49.6 38.4 9.6 72s-80 64-96 116.8v28.8c24 46.4 70.4 65.6 107.2 94.4 24 17.6 40 33.6 24 67.2-14.4 32-3.2 51.2 33.6 48h627.2c28.8 3.2 49.6-12.8 36.8-38.4-25.6-48 8-64 36.8-86.4 33.6-25.6 76.8-40 94.4-84.8 1.6-38.4-12.8-67.2-40-94.4-24-22.4-51.2-40-73.6-62.4zM257.6 331.2c160 57.6 315.2 62.4 473.6 9.6 11.2-3.2 25.6-27.2 36.8 3.2 8 22.4 4.8 36.8-17.6 46.4-32 16-65.6 24-100.8 30.4C528 440 406.4 440 288 400c-35.2-11.2-54.4-30.4-30.4-68.8z m548.8 270.4c-1.6 19.2-6.4 43.2-24 51.2-43.2 20.8-49.6 62.4-67.2 99.2-25.6 51.2-51.2 104-92.8 145.6-30.4 32-67.2 54.4-110.4 52.8-48 0-83.2-22.4-113.6-52.8-49.6-49.6-80-112-108.8-174.4-11.2-24-16-51.2-46.4-62.4-8-1.6-12.8-14.4-17.6-22.4-9.6-17.6-20.8-35.2-9.6-54.4 8-11.2 25.6-4.8 35.2 0 17.6 6.4 43.2-4.8 49.6 30.4 9.6 57.6 43.2 84.8 94.4 84.8 49.6 0 83.2-19.2 92.8-72 1.6-11.2 3.2-22.4 19.2-22.4 17.6 0 20.8 11.2 22.4 24 8 51.2 43.2 68.8 89.6 68.8 46.4 0 81.6-27.2 94.4-73.6 8-28.8 49.6-52.8 78.4-46.4 16 6.4 16 14.4 14.4 24z" /></svg>